<?xml version="1.0" encoding="UTF-8"?>
<svg version="1.1" xmlns="http://www.w3.org/2000/svg" width="815" height="422">
<path d="M0 0 C2.48934693 2.48934693 2.4304769 3.7135163 2.8515625 7.1640625 C2.98046875 8.20433594 3.109375 9.24460937 3.2421875 10.31640625 C3.36851562 11.40824219 3.49484375 12.50007812 3.625 13.625 C3.82609375 15.22794922 3.82609375 15.22794922 4.03125 16.86328125 C4.72511999 22.61957005 5.15439361 28.20322169 5 34 C4.30140869 34.26103516 3.60281738 34.52207031 2.88305664 34.79101562 C-22.71209654 44.3926137 -46.5441048 54.7349399 -68 72 C-69.00933594 72.80566406 -70.01867187 73.61132812 -71.05859375 74.44140625 C-85.97898499 86.57932749 -98.92462378 100.27986124 -110 116 C-110.4129834 116.58426758 -110.8259668 117.16853516 -111.25146484 117.77050781 C-128.69101191 142.80928823 -141.09309481 172.492795 -144 203 C-143.86013672 202.35264893 -143.72027344 201.70529785 -143.57617188 201.03833008 C-135.43275899 163.9183761 -120.04264364 132.59681982 -95 104 C-93.93635074 102.70927955 -92.87362367 101.41779758 -91.8125 100.125 C-89.19869352 97.08793508 -86.29045368 94.51471646 -83.234375 91.9296875 C-81.66890999 90.57769499 -80.14001599 89.18273043 -78.640625 87.7578125 C-39.38466861 50.52413265 15.75270966 32.96600042 69.09765625 33.74609375 C82.9660545 34.13278441 96.67476621 36.13469134 110.25 38.9375 C111.3493689 39.1555127 111.3493689 39.1555127 112.47094727 39.37792969 C116.80880795 40.35789774 119.30876035 41.4377118 122 45 C123.34442506 47.36640671 124.57543566 49.6800914 125.75 52.125 C126.06582031 52.75792969 126.38164062 53.39085937 126.70703125 54.04296875 C129 58.71824269 129 58.71824269 129 61 C127.95585937 60.74605469 126.91171875 60.49210937 125.8359375 60.23046875 C73.23827081 47.76161338 19.88271419 53.31069849 -28 79 C-28.65274902 79.34111816 -29.30549805 79.68223633 -29.97802734 80.03369141 C-55.90262868 93.60601988 -78.52480923 113.63782231 -96 137 C-96.42667969 137.56058105 -96.85335937 138.12116211 -97.29296875 138.69873047 C-125.46964135 175.81607803 -135.91106548 219.06948773 -135 265 C-134.98839844 266.25224365 -134.98839844 266.25224365 -134.9765625 267.52978516 C-134.84044177 275.11681425 -133.70174872 280.02575363 -128.4375 285.625 C-126.31977271 287.48318835 -124.20359167 289.25274124 -122 291 C-121.37077637 291.51804199 -120.74155273 292.03608398 -120.09326172 292.56982422 C-110.04289909 300.82224237 -99.47359403 307.88734848 -88 314 C-87.00395752 314.53101318 -87.00395752 314.53101318 -85.98779297 315.07275391 C-62.66369813 327.25800669 -35.74905726 334.97304061 -9.34765625 335.23828125 C-8.53862854 335.2480751 -7.72960083 335.25786896 -6.89605713 335.26795959 C18.53715081 335.51223489 41.6779153 333.34463161 66.01489258 325.48730469 C68 325 68 325 72 325 C72.60473145 326.12643921 72.60473145 326.12643921 73.22167969 327.27563477 C74.73428566 330.09211404 76.24772849 332.90814159 77.76171875 335.72387695 C78.41374127 336.93691588 79.06544101 338.15012837 79.71679688 339.36352539 C80.6592825 341.11912169 81.60307002 342.87401887 82.546875 344.62890625 C83.14435547 345.74023926 83.74183594 346.85157227 84.35742188 347.99658203 C85.67911451 350.41326794 87.04212096 352.7876055 88.453125 355.15234375 C90 358 90 358 90 361 C38.64435165 377.71008081 -17.18140063 376.82617295 -66.08203125 352.51171875 C-74.67418696 348.12348976 -83.01214627 343.42097039 -91 338 C-71.98588103 353.35879087 -47.98555535 368.57414371 -23.51953125 372.8671875 C-13.25367222 374.66957234 -13.25367222 374.66957234 -9.51171875 378.640625 C-7.78834377 381.4114104 -6.28426303 384.17808851 -4.90625 387.13427734 C-3.30484145 390.43114269 -1.36940372 393.53760401 0.5 396.6875 C4 402.66479358 4 402.66479358 4 405 C-5.16923137 403.87964073 -13.58908537 401.82285664 -22.3125 398.8125 C-23.48079346 398.41683838 -24.64908691 398.02117676 -25.8527832 397.61352539 C-34.79078545 394.53693384 -43.46777271 391.06358757 -52 387 C-49.23438447 388.3657743 -46.46412636 389.71937896 -43.6875 391.0625 C-42.41688721 391.68040405 -42.41688721 391.68040405 -41.12060547 392.31079102 C-35.87138243 394.8076324 -30.65012267 396.85236029 -25.1184082 398.62817383 C-13.28147333 402.47028086 -13.28147333 402.47028086 -10.5 407.875 C-9.64453125 410.421875 -9.64453125 410.421875 -9 413 C-8.40049677 414.70997544 -7.79660864 416.41842249 -7.1875 418.125 C-6.78378114 419.41422375 -6.38474975 420.70498864 -6 422 C-28.43225024 417.99424103 -50.2456947 405.95147775 -68 392 C-68.88816406 391.33226562 -69.77632813 390.66453125 -70.69140625 389.9765625 C-100.67975655 366.64732426 -121.88740536 332.91631883 -134.5 297.3125 C-137.40291438 289.24522483 -141.85026039 281.91676287 -146.00390625 274.4453125 C-148.89114464 269.2401248 -151.58586326 263.9620144 -154.20239258 258.61694336 C-156.03902819 254.87819749 -157.96772335 251.21506587 -159.99194336 247.57470703 C-182.86449227 206.17256836 -187.95731468 156.61244484 -175.1953125 111.13232422 C-166.84231857 82.93634968 -153.51036346 57.98335718 -134.40087891 35.64306641 C-133.15960306 34.18719564 -131.94311405 32.71027171 -130.73046875 31.23046875 C-127.36733544 27.18762849 -127.36733544 27.18762849 -126 26 C-125.01 26 -124.02 26 -123 26 C-122.5968457 26.75095947 -122.19369141 27.50191895 -121.77832031 28.27563477 C-120.26571434 31.09211404 -118.75227151 33.90814159 -117.23828125 36.72387695 C-116.58625873 37.93691588 -115.93455899 39.15012837 -115.28320312 40.36352539 C-114.3407175 42.11912169 -113.39692998 43.87401887 -112.453125 45.62890625 C-111.85693359 46.74152832 -111.26074219 47.85415039 -110.64648438 49.00048828 C-109.32137359 51.41453204 -107.93542652 53.7515529 -106.484375 56.08984375 C-105 59 -105 59 -104.984375 61.1484375 C-106.39343636 63.71726475 -108.19343876 65.53526842 -110.25 67.625 C-123.27803465 81.4134816 -134.83070253 98.39640653 -142 116 C-141.38253906 115.11699219 -140.76507813 114.23398438 -140.12890625 113.32421875 C-134.7074378 105.62104927 -129.08203419 98.20080302 -123 91 C-122.13794184 89.9740247 -121.27596561 88.94798056 -120.4140625 87.921875 C-118.10790427 85.18216569 -115.78983138 82.45280117 -113.46777344 79.7265625 C-111.94552924 77.93592528 -110.42966056 76.14001437 -108.9140625 74.34375 C-81.98115909 42.51857186 -39.82051316 13.27350439 0 0 Z M-145 119 C-144 121 -144 121 -144 121 Z M-96 334 C-95.01 335.485 -95.01 335.485 -94 337 C-93.34 336.67 -92.68 336.34 -92 336 C-93.32 335.34 -94.64 334.68 -96 334 Z M-110 336 C-109 338 -109 338 -109 338 Z M-101 347 C-100 349 -100 349 -100 349 Z M-87 362 C-86.01 363.485 -86.01 363.485 -85 365 C-84.34 364.67 -83.68 364.34 -83 364 C-84.32 363.34 -85.64 362.68 -87 362 Z M-80 368 C-79.67 368.66 -79.34 369.32 -79 370 C-78.34 369.67 -77.68 369.34 -77 369 C-77.99 368.67 -78.98 368.34 -80 368 Z M-76 371 C-75.01 372.485 -75.01 372.485 -74 374 C-73.34 373.67 -72.68 373.34 -72 373 C-73.32 372.34 -74.64 371.68 -76 371 Z M-72 374 C-71.67 374.66 -71.34 375.32 -71 376 C-70.34 375.67 -69.68 375.34 -69 375 C-69.99 374.67 -70.98 374.34 -72 374 Z M-69 376 C-68.67 376.66 -68.34 377.32 -68 378 C-67.34 377.67 -66.68 377.34 -66 377 C-66.99 376.67 -67.98 376.34 -69 376 Z M-66 378 C-65.67 378.66 -65.34 379.32 -65 380 C-64.34 379.67 -63.68 379.34 -63 379 C-63.99 378.67 -64.98 378.34 -66 378 Z M-63 380 C-59.98112756 383.48331435 -57.43090471 384.79157144 -53 386 C-55.36797991 383.38275905 -57.89600354 381.67138271 -61 380 C-61.66 380 -62.32 380 -63 380 Z " fill="#1B90B4" transform="translate(182,0)"/>
<path d="M0 0 C8.58 0 17.16 0 26 0 C29.24504554 6.49009107 32.29026051 12.8346154 35.01171875 19.52734375 C35.37760605 20.41772842 35.74349335 21.3081131 36.12046814 22.22547913 C36.90502478 24.13557895 37.68792694 26.04635904 38.46929932 27.95776367 C40.56681439 33.08831561 42.67669711 38.21378201 44.78515625 43.33984375 C45.21677063 44.39005707 45.64838501 45.44027039 46.09307861 46.52230835 C50.55453171 57.36886406 55.08556916 68.18590214 59.625 79 C65.48709857 92.97177622 71.3154288 106.95478753 77 121 C79.52489684 118.47510316 80.3820131 116.06391771 81.7734375 112.765625 C82.04895447 112.11714096 82.32447144 111.46865692 82.6083374 110.80052185 C83.21344605 109.37523393 83.81641298 107.94903535 84.4175415 106.52206421 C86.08563098 102.56366141 87.77046692 98.61238273 89.453125 94.66015625 C89.99460678 93.38668083 89.99460678 93.38668083 90.54702759 92.08747864 C95.01362486 81.595072 99.5704805 71.1419622 104.125 60.6875 C105.82569232 56.78262675 107.52619311 52.87767013 109.2265625 48.97265625 C109.63578949 48.03301025 110.04501648 47.09336426 110.46664429 46.12524414 C112.99564574 40.31568006 115.5145018 34.50184967 118.0234375 28.68359375 C118.32645782 27.98149277 118.62947815 27.27939178 118.94168091 26.55601501 C120.31158965 23.38181032 121.67954173 20.20681715 123.04345703 17.0300293 C123.51380371 15.93988525 123.98415039 14.84974121 124.46875 13.7265625 C124.86513672 12.80439941 125.26152344 11.88223633 125.66992188 10.93212891 C127.34469218 7.24013343 129.18695361 3.62609279 131 0 C139.58 0 148.16 0 157 0 C158.33581402 5.34325606 159.51118686 10.52211803 160.37942505 15.93392944 C160.50364047 16.69072734 160.62785589 17.44752525 160.75583541 18.22725642 C161.16742074 20.74002132 161.57419522 23.25353998 161.98095703 25.76708984 C162.27652861 27.57785639 162.57239408 29.38857498 162.86853027 31.19924927 C163.6690038 36.09907915 164.46526009 40.99958577 165.26066065 45.90024137 C166.09388251 51.02993953 166.93070514 56.15905032 167.76705933 61.28823853 C169.16976368 69.89409648 170.56986155 78.50037524 171.96826172 87.10693359 C173.5864986 97.06637681 175.20821296 107.02524875 176.8319217 116.98380125 C178.56007669 127.58312119 180.28581308 138.18283383 182.01077795 148.78267336 C182.50861048 151.84083946 183.00688569 154.89893316 183.50525284 157.95701218 C184.28652489 162.75185242 185.06617318 167.54695395 185.84454346 172.34226608 C186.13102839 174.10566024 186.41805609 175.86896631 186.70565414 177.63217926 C187.0967537 180.03054097 187.48590906 182.42921 187.87454224 184.82797241 C187.98990645 185.53262426 188.10527066 186.2372761 188.22413075 186.96328104 C189 191.77163268 189 191.77163268 189 194 C176.13 194 163.26 194 150 194 C149.52054932 190.67824707 149.04109863 187.35649414 148.54711914 183.93408203 C146.96570916 172.98125143 145.38049541 162.02897383 143.79338932 151.07696724 C142.83083252 144.43423238 141.86958023 137.79131359 140.91137695 131.14794922 C139.98720517 124.74145073 139.05968019 118.33544603 138.12978935 111.92977524 C137.77492254 109.48103129 137.42128171 107.03210936 137.06886482 104.58301163 C136.57654154 101.16310297 136.07993412 97.74384275 135.58227539 94.32470703 C135.43625885 93.30331635 135.29024231 92.28192566 135.13980103 91.22958374 C135.0037999 90.30127747 134.86779877 89.37297119 134.72767639 88.41653442 C134.61060868 87.60720018 134.49354097 86.79786594 134.37292576 85.96400642 C134.07948206 83.93187199 134.07948206 83.93187199 133 82 C132.28068996 83.65018185 131.56138021 85.30036382 130.84207153 86.95054626 C130.18678211 88.45385424 129.53148816 89.95716023 128.87619019 91.46046448 C126.99751532 95.77030977 125.11892691 100.08019272 123.24047852 104.39013672 C119.37814282 113.25170953 115.51483396 122.11285438 111.6484375 130.97265625 C102.05363314 152.96225679 92.50825308 174.97283745 83 197 C79.04 197 75.08 197 71 197 C70.19610538 195.09603906 69.39221106 193.192078 68.58831787 191.28811646 C67.85553437 189.55257985 67.1227461 187.81704526 66.38995361 186.08151245 C64.2963993 181.12315413 62.20293472 176.16475794 60.10961914 171.20629883 C55.6946438 160.74876186 51.27851545 150.29171512 46.859375 139.8359375 C42.5654552 129.67603969 38.27639296 119.51410145 33.99133301 109.35046387 C33.06230793 107.14773293 32.13238987 104.94538154 31.20214844 102.74316406 C29.73458704 99.26809682 28.27279854 95.79062623 26.8125 92.3125 C26.40829834 91.35690186 26.00409668 90.40130371 25.58764648 89.41674805 C25.23516846 88.574104 24.88269043 87.73145996 24.51953125 86.86328125 C24.22151611 86.15469971 23.92350098 85.44611816 23.61645508 84.71606445 C23 83 23 83 23 81 C22.34 81 21.68 81 21 81 C20.96914307 81.60516953 20.93828613 82.21033905 20.90649414 82.83384705 C20.17398796 93.82976929 18.22941282 104.64154316 16.4375 115.50390625 C16.0822638 117.67669764 15.72737036 119.84954509 15.37280273 122.02244568 C14.63262399 126.55231055 13.88931621 131.08164665 13.14355469 135.6105957 C12.18699207 141.42043023 11.23680878 147.23128566 10.28874207 153.04251194 C9.55810554 157.51826676 8.8249108 161.99359935 8.09085083 166.46879387 C7.73937832 168.61255819 7.38852517 170.75642415 7.03829956 172.90039253 C6.55015796 175.88526397 6.05876324 178.86958117 5.56640625 181.85375977 C5.42196075 182.74049377 5.27751526 183.62722778 5.12869263 184.54083252 C4.99413666 185.35220169 4.85958069 186.16357086 4.72094727 186.99952698 C4.60517838 187.70386147 4.48940948 188.40819597 4.37013245 189.13387394 C4 191 4 191 3 194 C-9.54 194 -22.08 194 -35 194 C-33.87499058 182.74990577 -33.87499058 182.74990577 -32.90182495 177.46574402 C-32.68338425 176.26858765 -32.46494354 175.07143127 -32.23988342 173.83799744 C-31.8830674 171.91728172 -31.8830674 171.91728172 -31.51904297 169.95776367 C-31.26390199 168.5681276 -31.00911588 167.17842634 -30.75465393 165.78866577 C-30.0657754 162.03208082 -29.37189621 158.27643548 -28.67704153 154.52095199 C-27.94211748 150.54429813 -27.21171092 146.56681442 -26.48074341 142.58943176 C-25.24765691 135.88342506 -24.01159151 129.17797323 -22.7734375 122.47290039 C-21.05279831 113.15493942 -19.33777726 103.83595116 -17.62380385 94.51676214 C-16.41392774 87.9397966 -15.20255941 81.36310575 -13.99099207 74.78645158 C-13.70358415 73.22625539 -13.41622279 71.66605062 -13.1289115 70.10583663 C-8.82299074 46.72374776 -4.43652358 23.35765914 0 0 Z " fill="#2D3A8F" transform="translate(478,98)"/>
<path d="M0 0 C9.57 0 19.14 0 29 0 C33.49977113 8.99954226 33.49977113 8.99954226 34.85253906 12.32836914 C35.16161697 13.08437912 35.47069489 13.8403891 35.78913879 14.61930847 C36.11137924 15.41653824 36.43361969 16.21376801 36.765625 17.03515625 C37.29073921 18.32302788 37.29073921 18.32302788 37.82646179 19.63691711 C38.57831905 21.48196617 39.32874091 23.32760068 40.07785034 25.17376709 C41.27376622 28.12107125 42.4734243 31.06682766 43.67407227 34.01220703 C45.32506351 38.0628385 46.97477941 42.11398546 48.62353516 46.16552734 C52.04700507 54.57463974 55.49057399 62.97548103 58.9375 71.375 C59.25869812 72.15808533 59.57989624 72.94117065 59.91082764 73.74798584 C64.97762542 86.09997971 70.07107918 98.44085783 75.17233276 110.77865601 C81.70266472 126.57331335 88.21993602 142.37320662 94.69805908 158.18936157 C95.47066364 160.07543743 96.24372023 161.9613282 97.01727295 163.84701538 C98.09370394 166.47163408 99.16822136 169.09702815 100.2421875 171.72265625 C100.54974976 172.47187347 100.85731201 173.2210907 101.17419434 173.99301147 C103.88346295 180.62794944 106.42527842 187.30572389 109 194 C95.47 194 81.94 194 68 194 C62.18545099 181.20799217 57.13796161 168.07844773 52 155 C26.59 154.67 1.18 154.34 -25 154 C-25.99 156.97 -26.98 159.94 -28 163 C-29.01930871 165.56992986 -30.05441126 168.11779344 -31.13671875 170.66015625 C-31.38925415 171.26049683 -31.64178955 171.8608374 -31.90197754 172.47937012 C-32.82683127 174.67528918 -33.75748247 176.86876293 -34.6875 179.0625 C-36.770625 183.991875 -38.85375 188.92125 -41 194 C-54.53 194 -68.06 194 -82 194 C-78.29206402 184.11217072 -74.56869838 174.44240751 -70.3125 164.8125 C-69.15659707 162.17472555 -68.00543748 159.53489756 -66.85546875 156.89453125 C-66.54963867 156.19264679 -66.24380859 155.49076233 -65.92871094 154.76760864 C-61.91914009 145.54361355 -58.02743582 136.26968279 -54.125 127 C-46.47790174 108.84343167 -38.77484935 90.71130629 -31.04537964 72.58966064 C-25.80618828 60.30500245 -20.57655905 48.01654033 -15.38671875 35.7109375 C-14.94292877 34.65867981 -14.49913879 33.60642212 -14.04190063 32.52227783 C-11.94606505 27.55103226 -9.85256159 22.57881616 -7.76171875 17.60546875 C-7.02213851 15.84895703 -6.28255536 14.09244654 -5.54296875 12.3359375 C-5.21076828 11.54383881 -4.87856781 10.75174011 -4.53630066 9.93563843 C-4.22936783 9.20712677 -3.922435 8.47861511 -3.60620117 7.72802734 C-3.34248215 7.10036469 -3.07876312 6.47270203 -2.80705261 5.82601929 C-1.93562364 3.85434349 -0.96404293 1.92808587 0 0 Z M14 58 C8.16503252 71.34969832 2.62198756 84.79886597 -2.74902344 98.34033203 C-3.22887695 99.54931152 -3.70873047 100.75829102 -4.203125 102.00390625 C-4.89825195 103.75598389 -4.89825195 103.75598389 -5.60742188 105.54345703 C-7.3826844 109.94986776 -9.23465867 114.321911 -11.10839844 118.68725586 C-12.11990387 120.89791174 -12.11990387 120.89791174 -12 123 C5.16 123 22.32 123 40 123 C32.03275434 101.18200418 23.59135757 79.57825339 15 58 C14.67 58 14.34 58 14 58 Z " fill="#2D3A8F" transform="translate(191,98)"/>
<path d="M0 0 C83.20460593 0 83.20460593 0 95.375 6.5625 C96.03290527 6.90619629 96.69081055 7.24989258 97.36865234 7.60400391 C107.23950638 13.03454734 113.92930585 21.04995864 119 31 C119.38929688 31.763125 119.77859375 32.52625 120.1796875 33.3125 C127.0124095 47.67617836 127.37794363 66.89769564 123.10546875 82.08203125 C117.29188146 97.42743656 108.70660264 107.55707774 93.82421875 114.4765625 C75.55011612 121.96128478 58.11523378 120 38 120 C38 143.1 38 166.2 38 190 C25.46 190 12.92 190 0 190 C0 127.3 0 64.6 0 0 Z M38 33 C38 50.82 38 68.64 38 87 C60.32914445 88.13408676 60.32914445 88.13408676 80 79 C86.56381963 70.76240637 86.88395639 62.22269569 86 52 C84.44581091 46.18505838 81.76198392 42.15893347 76.9375 38.5625 C64.48952852 31.40593008 52.65545386 33 38 33 Z " fill="#2D3A8F" transform="translate(318,102)"/>
<path d="M0 0 C91.62426223 0 91.62426223 0 108.88671875 16.75390625 C120.20903876 28.78779535 125.61419936 43.7861076 125.4375 60.25 C125.42992676 61.24999023 125.42235352 62.24998047 125.41455078 63.28027344 C125.0895148 78.01365612 120.94831362 92.33058266 110.7421875 103.3828125 C90.57003118 122.10763922 64.4030706 120 38 120 C38 143.1 38 166.2 38 190 C25.46 190 12.92 190 0 190 C0 127.3 0 64.6 0 0 Z M38 33 C38 50.82 38 68.64 38 87 C60.63979144 88.2718288 60.63979144 88.2718288 79.6171875 78.3984375 C85.90248215 71.57182561 86.52806623 64.87705499 86.3671875 55.76953125 C85.7396414 49.32716972 83.77755654 44.66418688 79.0859375 40.1640625 C66.84951579 31.04236632 52.91832968 33 38 33 Z " fill="#2D3A8F" transform="translate(690,102)"/>
<path d="M0 0 C3.16911929 2.67614518 6.3101156 5.34385362 9.31640625 8.203125 C43.20165791 40.27771436 89.29588124 55.48306317 135.375 55.375 C136.25129059 55.37445618 137.12758118 55.37391235 138.03042603 55.37335205 C159.60873275 55.31200752 179.46426992 52.1221862 200.01489258 45.48730469 C202 45 202 45 206 45 C206.4031543 45.75095947 206.80630859 46.50191895 207.22167969 47.27563477 C208.73428566 50.09211404 210.24772849 52.90814159 211.76171875 55.72387695 C212.41374127 56.93691588 213.06544101 58.15012837 213.71679688 59.36352539 C214.6592825 61.11912169 215.60307002 62.87401887 216.546875 64.62890625 C217.4430957 66.29590576 217.4430957 66.29590576 218.35742188 67.99658203 C219.67911451 70.41326794 221.04212096 72.7876055 222.453125 75.15234375 C224 78 224 78 224 81 C172.64435165 97.71008081 116.81859937 96.82617295 67.91796875 72.51171875 C59.32581304 68.12348976 50.98785373 63.42097039 43 58 C62.01411897 73.35879087 86.01444465 88.57414371 110.48046875 92.8671875 C120.74632778 94.66957234 120.74632778 94.66957234 124.48828125 98.640625 C126.21165623 101.4114104 127.71573697 104.17808851 129.09375 107.13427734 C130.69515855 110.43114269 132.63059628 113.53760401 134.5 116.6875 C138 122.66479358 138 122.66479358 138 125 C128.86719717 123.87668401 120.44633599 121.85964197 111.75 118.875 C110.57050781 118.47321533 109.39101562 118.07143066 108.17578125 117.6574707 C87.16031095 110.35355896 67.66827895 99.89615068 51 85 C50.02933594 84.14921875 49.05867188 83.2984375 48.05859375 82.421875 C27.68945083 64.35042101 7.58083319 40.03813486 1.8125 12.8125 C1.63525391 12.01908203 1.45800781 11.22566406 1.27539062 10.40820312 C0.48619976 6.77914399 0 3.75379821 0 0 Z M38 54 C38.99 55.485 38.99 55.485 40 57 C40.66 56.67 41.32 56.34 42 56 C40.68 55.34 39.36 54.68 38 54 Z " fill="#243F82" transform="translate(48,280)"/>
<path d="M0 0 C0.7329126 0.1453418 1.4658252 0.29068359 2.22094727 0.44042969 C6.55880795 1.42039774 9.05876035 2.5002118 11.75 6.0625 C13.09442506 8.42890671 14.32543566 10.7425914 15.5 13.1875 C15.81582031 13.82042969 16.13164062 14.45335938 16.45703125 15.10546875 C18.75 19.78074269 18.75 19.78074269 18.75 22.0625 C17.70585937 21.80855469 16.66171875 21.55460937 15.5859375 21.29296875 C-37.01172919 8.82411338 -90.36728581 14.37319849 -138.25 40.0625 C-138.90274902 40.40361816 -139.55549805 40.74473633 -140.22802734 41.09619141 C-166.15262868 54.66851988 -188.77480923 74.70032231 -206.25 98.0625 C-206.67667969 98.62308105 -207.10335937 99.18366211 -207.54296875 99.76123047 C-238.37961041 140.38257574 -250.46301628 191.53566988 -243.58764648 241.82885742 C-239.35010222 270.15124388 -225.54990231 293.25489481 -206.25 314.0625 C-205.35667969 315.02671875 -204.46335938 315.9909375 -203.54296875 316.984375 C-192.21753387 328.72435727 -179.2813086 337.85662773 -165.25 346.0625 C-164.64607422 346.41940918 -164.04214844 346.77631836 -163.41992188 347.14404297 C-153.98846348 352.65435442 -144.15352432 356.56902162 -133.90234375 360.30078125 C-132.35126561 360.88723621 -130.80045198 361.47439161 -129.25 362.0625 C-128.13496094 362.46726562 -127.01992187 362.87203125 -125.87109375 363.2890625 C-122.08612769 365.84997843 -120.99654661 368.95688814 -119.375 373.125 C-119.06820312 373.85783203 -118.76140625 374.59066406 -118.4453125 375.34570312 C-116.25 380.68207659 -116.25 380.68207659 -116.25 383.0625 C-138.68225024 379.05674103 -160.4956947 367.01397775 -178.25 353.0625 C-179.13816406 352.39476562 -180.02632813 351.72703125 -180.94140625 351.0390625 C-210.16041482 328.30832856 -227.15484986 298.23234974 -242.25 265.0625 C-242.79527344 263.86496094 -243.34054688 262.66742188 -243.90234375 261.43359375 C-262.08780532 217.8001061 -260.17439539 166.84747033 -242.60546875 123.49609375 C-233.34505966 101.63356235 -220.8227212 82.84537902 -205.25 65.0625 C-204.18635074 63.77177955 -203.12362367 62.48029758 -202.0625 61.1875 C-199.44869352 58.15043508 -196.54045368 55.57721646 -193.484375 52.9921875 C-191.91890999 51.64019499 -190.39001599 50.24523043 -188.890625 48.8203125 C-138.99204238 1.49226293 -66.01727165 -13.63024634 0 0 Z " fill="#4B9D3D" transform="translate(292.25,38.9375)"/>
<path d="M0 0 C0.4031543 0.75095947 0.80630859 1.50191895 1.22167969 2.27563477 C2.73428566 5.09211404 4.24772849 7.90814159 5.76171875 10.72387695 C6.41374127 11.93691588 7.06544101 13.15012837 7.71679688 14.36352539 C8.6592825 16.11912169 9.60307002 17.87401887 10.546875 19.62890625 C11.44116211 21.29783936 11.44116211 21.29783936 12.35351562 23.00048828 C13.67862641 25.41453204 15.06457348 27.7515529 16.515625 30.08984375 C18 33 18 33 18.015625 35.1484375 C16.60656364 37.71726475 14.80656124 39.53526842 12.75 41.625 C-17.65043227 73.79990684 -38.21283492 120.23498794 -38.25 164.4375 C-38.25067474 165.16142944 -38.25134949 165.88535889 -38.25204468 166.63122559 C-38.2241078 185.65232267 -36.47226747 204.17243681 -31.53833008 222.59472656 C-31.3245874 223.39749023 -31.11084473 224.20025391 -30.890625 225.02734375 C-30.69500977 225.72593506 -30.49939453 226.42452637 -30.29785156 227.14428711 C-30 229 -30 229 -31 232 C-56.76628486 187.67856973 -66.17551472 138.26865974 -53 88 C-44.78248084 58.71511526 -31.16389174 32.74737631 -11.40087891 9.64306641 C-10.15960306 8.18719564 -8.94311405 6.71027171 -7.73046875 5.23046875 C-3.37937828 0 -3.37937828 0 0 0 Z " fill="#1D5AA1" transform="translate(59,26)"/>
<path d="M0 0 C2.77357967 2.68214298 5.20670352 5.44713199 7.5625 8.5 C31.25750385 38.31548455 67.87318383 68.09278215 106.48046875 74.8671875 C116.74632778 76.66957234 116.74632778 76.66957234 120.48828125 80.640625 C122.21165623 83.4114104 123.71573697 86.17808851 125.09375 89.13427734 C126.69515855 92.43114269 128.63059628 95.53760401 130.5 98.6875 C134 104.66479358 134 104.66479358 134 107 C124.86719717 105.87668401 116.44633599 103.85964197 107.75 100.875 C106.57050781 100.47321533 105.39101562 100.07143066 104.17578125 99.6574707 C83.16031095 92.35355896 63.66827895 81.89615068 47 67 C46.02933594 66.14921875 45.05867188 65.2984375 44.05859375 64.421875 C25.51756779 47.97232193 8.91708649 27.38999011 0 4 C0 2.68 0 1.36 0 0 Z " fill="#20A1DB" transform="translate(52,298)"/>
</svg>
